# Blender v2.93.3 OBJ File: 'Boxes.blend'
# www.blender.org
o Cube.095_Cube.146
v 0.494484 0.738395 -5.974670
v 0.494484 -0.738395 -5.974670
v -1.505516 -0.738395 -3.974670
v -1.505516 0.738395 -3.974670
v 0.494484 0.738395 -3.974670
v 0.494484 -0.738395 -3.974670
v -1.505516 0.738395 -5.974670
v -1.505516 -0.738395 -5.974670
v -1.628572 -1.000000 -6.097726
v -1.628572 -1.000000 -3.851615
v 0.617540 -1.000000 -6.097726
v 0.617540 -0.738395 -6.097726
v -1.628572 0.738395 -3.851615
v -1.628572 1.000000 -3.851615
v 0.617540 -0.738395 -3.851615
v 0.617540 -1.000000 -3.851615
v -1.628572 -0.738395 -6.097726
v 0.617540 1.000000 -3.851615
v 0.617540 1.000000 -6.097726
v -1.628572 1.000000 -6.097726
v 0.617540 0.738395 -6.097726
v -1.628572 -0.738395 -3.851615
v 0.617540 0.738395 -3.851615
v -1.628572 0.738395 -6.097726
v 0.494484 -0.738395 -5.974670
v -1.505516 -0.738395 -3.974670
v 0.494484 -0.738395 -3.974670
v -1.505516 -0.738395 -5.974670
v 0.617540 -0.738395 -6.097726
v 0.617540 -0.738395 -3.851615
v -1.628572 -0.738395 -6.097726
v -1.628572 -0.738395 -3.851615
vt 0.934283 0.825045
vt 0.934282 0.187715
vt 0.991266 0.148501
vt 0.991266 0.864258
vt 0.930385 0.825435
vt 0.930386 0.187282
vt 0.989190 0.148017
vt 0.989190 0.864701
vt 0.994675 0.125961
vt 0.994675 0.873204
vt 0.001103 0.873204
vt 0.001104 0.125961
vt 0.994679 0.125961
vt 0.994679 0.873203
vt 0.001107 0.873203
vt 0.001107 0.125961
vt 0.151781 0.942526
vt 0.846924 0.942526
vt 0.861396 0.997439
vt 0.142214 0.997438
vt 0.994676 0.125961
vt 0.994676 0.873204
vt 0.001103 0.873204
vt 0.001103 0.125961
vt 0.994670 0.125961
vt 0.994670 0.873204
vt 0.001099 0.873204
vt 0.001099 0.125961
vt 0.859873 0.875376
vt 0.859873 1.000389
vt 0.143189 1.000387
vt 0.143189 0.875375
vt 0.861396 0.879847
vt 0.861396 0.996586
vt 0.142214 0.996585
vt 0.142214 0.879846
vt 0.860948 0.878902
vt 0.860948 0.995642
vt 0.142861 0.995641
vt 0.142861 0.878901
vt 0.859389 0.877451
vt 0.859389 0.998594
vt 0.143632 0.998593
vt 0.143632 0.877451
vt 0.843910 0.000202
vt 0.843910 0.119337
vt 0.154833 0.119335
vt 0.154833 0.000202
vt 0.848835 0.000910
vt 0.848835 0.117697
vt 0.151882 0.117696
vt 0.151882 0.000910
vt 0.851322 0.001394
vt 0.851322 0.116036
vt 0.149850 0.116035
vt 0.149850 0.001394
vt 0.850121 0.001632
vt 0.850121 0.114598
vt 0.150076 0.114596
vt 0.150076 0.001632
vt 0.152369 0.941580
vt 0.846537 0.941582
vt 0.860948 0.996495
vt 0.142861 0.996493
vt 0.996387 0.004248
vt 0.996387 0.999449
vt 0.001187 0.999448
vt 0.001187 0.004248
vt 0.000515 0.998873
vt 0.000517 0.000832
vt 0.998558 0.000833
vt 0.998557 0.998875
vt 0.806158 0.064083
vt 0.192585 0.064082
vt 0.154833 0.008042
vt 0.843910 0.008044
vt 0.811768 0.056443
vt 0.188428 0.056442
vt 0.150076 0.003303
vt 0.850121 0.003305
vt 0.810652 0.061338
vt 0.190065 0.061338
vt 0.151882 0.006403
vt 0.848835 0.006404
vt 0.812890 0.058669
vt 0.188281 0.058668
vt 0.149850 0.004742
vt 0.851322 0.004743
vn 0.0000 -1.0000 0.0000
vn 0.0000 0.0000 -1.0000
vn 1.0000 0.0000 0.0000
vn -1.0000 0.0000 0.0000
vn 0.0000 0.0000 1.0000
vn 0.0000 1.0000 0.0000
s off
f 1/1/1 7/2/1 24/3/1 21/4/1
f 4/5/1 5/6/1 23/7/1 13/8/1
f 8/9/2 7/10/2 1/11/2 2/12/2
f 2/13/3 1/14/3 5/15/3 6/16/3
f 7/17/1 4/18/1 13/19/1 24/20/1
f 3/21/4 4/22/4 7/23/4 8/24/4
f 6/25/5 5/26/5 4/27/5 3/28/5
f 23/29/5 18/30/5 14/31/5 13/32/5
f 13/33/4 14/34/4 20/35/4 24/36/4
f 21/37/3 19/38/3 18/39/3 23/40/3
f 24/41/2 20/42/2 19/43/2 21/44/2
f 9/45/2 17/46/2 12/47/2 11/48/2
f 11/49/3 12/50/3 15/51/3 16/52/3
f 10/53/4 22/54/4 17/55/4 9/56/4
f 16/57/5 15/58/5 22/59/5 10/60/5
f 5/61/1 1/62/1 21/63/1 23/64/1
f 9/65/1 11/66/1 16/67/1 10/68/1
f 18/69/6 19/70/6 20/71/6 14/72/6
f 28/73/6 25/74/6 29/75/6 31/76/6
f 27/77/6 26/78/6 32/79/6 30/80/6
f 25/81/6 27/82/6 30/83/6 29/84/6
f 26/85/6 28/86/6 31/87/6 32/88/6
o Cube.096_Cube.147
v -1.505516 -1.000000 -0.689284
v -1.505516 1.000000 -0.689284
v -1.505516 -1.000000 -2.689284
v -1.505516 1.000000 -2.689284
v 0.494484 -1.000000 -0.689284
v 0.494484 1.000000 -0.689284
v 0.494484 -1.000000 -2.689284
v 0.494484 1.000000 -2.689284
vt 0.001786 0.002982
vt 0.997148 0.002982
vt 0.997148 0.998343
vt 0.001786 0.998343
vt 0.992985 -0.002964
vt 0.992985 0.996718
vt 0.001811 0.996718
vt 0.001811 -0.002964
vt 0.996362 0.000010
vt 0.996362 0.998878
vt 0.005995 0.998878
vt 0.005995 0.000010
vt 0.997567 -0.001808
vt 0.997567 1.001450
vt 0.002848 1.001450
vt 0.002847 -0.001808
vt 0.006908 0.996236
vt 0.006908 0.000102
vt 0.994564 0.000102
vt 0.994564 0.996236
vt 0.000457 0.999753
vt 0.000457 -0.007218
vt 0.998858 -0.007218
vt 0.998858 0.999753
vn -1.0000 0.0000 0.0000
vn 0.0000 0.0000 -1.0000
vn 1.0000 0.0000 0.0000
vn 0.0000 0.0000 1.0000
vn 0.0000 -1.0000 0.0000
vn 0.0000 1.0000 0.0000
s off
f 33/89/7 34/90/7 36/91/7 35/92/7
f 35/93/8 36/94/8 40/95/8 39/96/8
f 39/97/9 40/98/9 38/99/9 37/100/9
f 37/101/10 38/102/10 34/103/10 33/104/10
f 35/105/11 39/106/11 37/107/11 33/108/11
f 40/109/12 36/110/12 34/111/12 38/112/12
o Cube.097_Cube.148
v 0.494484 0.738395 3.762271
v 0.494484 -1.000000 3.762271
v -1.505516 -1.000000 5.762271
v -1.505516 0.738395 5.762271
v 0.494484 0.738395 5.762271
v 0.494484 -1.000000 5.762271
v -1.505516 0.738395 3.762271
v -1.505516 -1.000000 3.762271
v -1.628572 0.738395 5.885326
v -1.628572 1.000000 5.885326
v 0.617540 1.000000 5.885326
v 0.617540 1.000000 3.639215
v -1.628572 1.000000 3.639215
v 0.617540 0.738395 3.639215
v 0.617540 0.738395 5.885326
v -1.628572 0.738395 3.639215
vt 0.145657 0.949021
vt 0.849179 0.949023
vt 0.892466 0.995893
vt 0.102371 0.995892
vt 0.143860 0.945902
vt 0.854696 0.945902
vt 0.898431 0.994227
vt 0.100125 0.994226
vt 0.991591 0.001018
vt 0.995168 0.859646
vt 0.007328 0.863761
vt 0.003751 0.005133
vt 0.986619 0.004684
vt 0.990167 0.863610
vt 0.010393 0.867727
vt 0.006846 0.008800
vt 0.144189 0.947589
vt 0.853817 0.947590
vt 0.897479 0.995077
vt 0.100526 0.995076
vt 0.989373 0.004441
vt 0.992947 0.869762
vt 0.005879 0.873909
vt 0.002306 0.008588
vt 0.989763 0.002789
vt 0.993341 0.854254
vt 0.005055 0.858335
vt 0.001477 0.006869
vt 0.852554 0.899227
vt 0.852554 1.001962
vt 0.146002 1.001961
vt 0.146003 0.899226
vt 0.851711 0.900078
vt 0.851711 1.001032
vt 0.146358 1.001030
vt 0.146358 0.900076
vt 0.848544 0.900357
vt 0.848543 1.001637
vt 0.151270 1.001636
vt 0.151270 0.900356
vt 0.847274 0.900893
vt 0.847274 1.000535
vt 0.147990 1.000533
vt 0.147990 0.900892
vt 0.149238 0.947717
vt 0.850738 0.947717
vt 0.893900 0.995357
vt 0.106076 0.995356
vt 0.994970 0.004069
vt 0.994968 0.996560
vt 0.002478 0.996558
vt 0.002479 0.004067
vt 0.195854 0.203714
vt 0.799137 0.201201
vt 0.801650 0.804484
vt 0.198367 0.806997
vn 0.0000 -1.0000 0.0000
vn 0.0000 0.0000 -1.0000
vn 1.0000 0.0000 0.0000
vn -1.0000 0.0000 0.0000
vn 0.0000 0.0000 1.0000
vn 0.0000 1.0000 0.0000
s off
f 41/113/13 47/114/13 56/115/13 54/116/13
f 44/117/13 45/118/13 55/119/13 49/120/13
f 48/121/14 47/122/14 41/123/14 42/124/14
f 42/125/15 41/126/15 45/127/15 46/128/15
f 47/129/13 44/130/13 49/131/13 56/132/13
f 43/133/16 44/134/16 47/135/16 48/136/16
f 46/137/17 45/138/17 44/139/17 43/140/17
f 55/141/17 51/142/17 50/143/17 49/144/17
f 49/145/16 50/146/16 53/147/16 56/148/16
f 54/149/15 52/150/15 51/151/15 55/152/15
f 56/153/14 53/154/14 52/155/14 54/156/14
f 45/157/13 41/158/13 54/159/13 55/160/13
f 51/161/18 52/162/18 53/163/18 50/164/18
f 48/165/13 42/166/13 46/167/13 43/168/13
o Cube.098_Cube.149
v -1.505516 -1.000000 2.643207
v -1.505516 1.000000 2.643207
v -1.505516 -1.000000 0.643207
v -1.505516 1.000000 0.643207
v 0.494484 -1.000000 2.643207
v 0.494484 1.000000 2.643207
v 0.494484 -1.000000 0.643207
v 0.494484 1.000000 0.643207
v -1.505516 -0.800000 2.443207
v -1.505516 0.800000 2.443207
v -1.505516 0.800000 0.843207
v -1.505516 -0.800000 0.843207
v -1.305515 -0.800000 0.643207
v -1.305515 0.800000 0.643207
v 0.294483 0.800000 0.643207
v 0.294483 -0.800000 0.643207
v 0.494484 -0.800000 0.843207
v 0.494484 0.800000 0.843207
v 0.494484 0.800000 2.443207
v 0.494484 -0.800000 2.443207
v 0.294483 -0.800000 2.643207
v 0.294483 0.800000 2.643207
v -1.305515 0.800000 2.643207
v -1.305515 -0.800000 2.643207
v -1.305515 -1.000000 0.843207
v 0.294483 -1.000000 0.843207
v 0.294483 -1.000000 2.443207
v -1.305515 -1.000000 2.443207
v 0.294483 1.000000 0.843207
v -1.305515 1.000000 0.843207
v -1.305515 1.000000 2.443207
v 0.294483 1.000000 2.443207
v -1.407539 -0.800000 2.443207
v -1.407539 0.800000 2.443207
v -1.407539 -0.800000 0.843207
v -1.407539 0.800000 0.843207
v -1.305515 0.800000 0.741183
v -1.305515 -0.800000 0.741183
v 0.294483 -0.800000 0.741183
v 0.294483 0.800000 0.741183
v 0.396507 0.800000 0.843207
v 0.396507 -0.800000 0.843207
v 0.396507 -0.800000 2.443207
v 0.396507 0.800000 2.443207
v 0.294483 0.800000 2.545230
v 0.294483 -0.800000 2.545230
v -1.305515 -0.800000 2.545230
v -1.305515 0.800000 2.545230
v 0.294483 -0.902023 0.843207
v -1.305515 -0.902023 0.843207
v -1.305515 -0.902023 2.443207
v 0.294483 -0.902023 2.443207
v -1.305515 0.902023 0.843207
v 0.294483 0.902023 0.843207
v 0.294483 0.902023 2.443207
v -1.305515 0.902023 2.443207
vt 0.990479 0.111768
vt 0.990478 0.892487
vt 0.942671 0.892487
vt 0.942671 0.111768
vt 0.899428 0.992318
vt 0.103529 0.992317
vt 0.103529 0.943161
vt 0.899429 0.943161
vt 0.052971 0.112846
vt 0.052970 0.897784
vt 0.004905 0.897784
vt 0.004905 0.112846
vt 0.097249 0.013602
vt 0.900377 0.013602
vt 0.900377 0.063203
vt 0.097249 0.063203
vt 0.990117 0.111771
vt 0.990117 0.895777
vt 0.942107 0.895777
vt 0.942107 0.111771
vt 0.052438 0.111995
vt 0.052437 0.896616
vt 0.004391 0.896616
vt 0.004391 0.111995
vt 0.003525 0.013918
vt 0.003524 0.994694
vt -0.094554 0.896616
vt -0.094553 0.111995
vt 0.004326 0.995868
vt 0.996991 0.995868
vt 0.897725 1.095986
vt 0.103593 1.095986
vt 0.995722 0.993778
vt 0.995723 0.013770
vt 1.093724 0.111771
vt 1.093723 0.895777
vt -0.003141 0.006844
vt 1.000769 0.006844
vt 0.900377 0.108096
vt 0.097249 0.108096
vt 0.897723 0.895777
vt 0.897723 0.111771
vt 0.003598 0.016341
vt 0.003598 0.996602
vt -0.094428 0.898576
vt -0.094427 0.114367
vt 0.004097 0.995902
vt 0.004098 0.014728
vt 0.102215 0.112846
vt 0.102215 0.897784
vt 0.998916 0.996066
vt 0.004041 0.996066
vt 0.103529 0.895723
vt 0.899428 0.895724
vt -0.094020 0.897784
vt -0.094020 0.112846
vt 1.000999 0.007553
vt -0.003520 0.007553
vt 0.096932 -0.093762
vt 0.900547 -0.093762
vt 0.995674 0.990077
vt 0.995675 0.014179
vt 1.093264 0.111768
vt 1.093264 0.892487
vt 0.997456 0.996512
vt 0.005929 0.996512
vt 0.105082 0.896507
vt 0.898304 0.896507
vt 0.898084 0.892487
vt 0.898085 0.111768
vt 0.995271 0.991216
vt 0.995272 0.014355
vt 1.092958 0.112041
vt 1.092957 0.893530
vt 0.101602 0.111995
vt 0.101601 0.896616
vt 0.999770 0.007811
vt -0.004294 0.007810
vt 0.096112 -0.093458
vt 0.899364 -0.093457
vt 0.899428 1.096407
vt 0.103529 1.096406
vt 0.898304 1.096514
vt 0.105082 1.096514
vt 0.899364 0.109080
vt 0.096112 0.109079
vt 0.097249 -0.094410
vt 0.900377 -0.094410
vt 0.101625 0.114367
vt 0.101624 0.898576
vt 0.103593 0.895749
vt 0.897725 0.895749
vt 0.897586 0.893530
vt 0.897587 0.112041
vt 0.900547 0.108866
vt 0.096932 0.108866
vt 0.876087 0.126783
vt 0.876087 0.875897
vt 0.126973 0.875897
vt 0.126973 0.126783
vt 0.876138 0.126757
vt 0.876138 0.875870
vt 0.127024 0.875870
vt 0.127024 0.126756
vt 0.876170 0.126592
vt 0.876170 0.875705
vt 0.127056 0.875705
vt 0.127056 0.126592
vt 0.127086 0.875842
vt 0.127086 0.126728
vt 0.876200 0.126729
vt 0.876200 0.875842
vt 0.876122 0.126749
vt 0.876121 0.875863
vt 0.127007 0.875863
vt 0.127008 0.126749
vt 0.876209 0.126858
vt 0.876209 0.875971
vt 0.127095 0.875971
vt 0.127095 0.126858
vt 0.103593 0.942696
vt 0.897725 0.942696
vt 0.897725 0.991742
vt 0.103593 0.991742
vt 0.898304 0.993101
vt 0.105082 0.993101
vt 0.105082 0.944111
vt 0.898303 0.944111
vt 0.103529 0.943116
vt 0.899428 0.943117
vt 0.899428 0.992273
vt 0.103529 0.992273
vt 0.052564 0.114367
vt 0.052563 0.898576
vt 0.004541 0.898576
vt 0.004541 0.114367
vt 0.899364 0.064033
vt 0.096112 0.064032
vt 0.096112 0.014423
vt 0.899364 0.014422
vt 0.005031 0.898576
vt 0.005031 0.114367
vt 0.053052 0.114367
vt 0.053052 0.898576
vt 0.942533 0.895777
vt 0.942533 0.111771
vt 0.990543 0.111771
vt 0.990543 0.895777
vt 0.900547 0.063728
vt 0.096932 0.063728
vt 0.096932 0.014096
vt 0.900547 0.014096
vt 0.900377 0.063081
vt 0.097249 0.063081
vt 0.097249 0.013478
vt 0.900377 0.013478
vt 0.005621 0.897784
vt 0.005621 0.112846
vt 0.053688 0.112846
vt 0.053688 0.897784
vt 0.941767 0.893530
vt 0.941767 0.112041
vt 0.989624 0.112041
vt 0.989624 0.893530
vt 0.096932 0.014372
vt 0.900547 0.014372
vt 0.900547 0.064004
vt 0.096932 0.064004
vt 0.942074 0.892487
vt 0.942074 0.111768
vt 0.989882 0.111768
vt 0.989882 0.892487
vt 0.105082 0.943224
vt 0.898304 0.943224
vt 0.898304 0.992215
vt 0.105082 0.992215
vt 0.005007 0.896616
vt 0.005008 0.111995
vt 0.053055 0.111995
vt 0.053055 0.896616
vt 0.897725 0.992343
vt 0.103593 0.992343
vt 0.103593 0.943296
vt 0.897725 0.943297
vt 0.096112 0.014585
vt 0.899364 0.014585
vt 0.899364 0.064195
vt 0.096112 0.064195
vt 0.989981 0.112041
vt 0.989980 0.893530
vt 0.942126 0.893530
vt 0.942126 0.112041
vn -1.0000 0.0000 0.0000
vn 0.0000 1.0000 0.0000
vn 0.0000 0.0000 1.0000
vn 1.0000 0.0000 0.0000
vn 0.0000 0.0000 -1.0000
vn 0.0000 -1.0000 0.0000
s off
f 77/169/19 78/170/19 101/171/19 102/172/19
f 72/173/20 69/174/20 94/175/20 95/176/20
f 73/177/21 74/178/21 97/179/21 98/180/21
f 68/181/20 65/182/20 89/183/20 91/184/20
f 69/185/22 70/186/22 93/187/22 94/188/22
f 65/189/23 66/190/23 90/191/23 89/192/23
f 57/193/19 58/194/19 66/195/19 65/196/19
f 58/197/19 60/198/19 67/199/19 66/200/19
f 60/201/19 59/202/19 68/203/19 67/204/19
f 59/205/19 57/206/19 65/207/19 68/208/19
f 59/202/23 60/201/23 70/209/23 69/210/23
f 60/211/23 64/212/23 71/213/23 70/214/23
f 64/215/23 63/216/23 72/217/23 71/218/23
f 63/219/23 59/220/23 69/221/23 72/222/23
f 63/216/22 64/215/22 74/223/22 73/224/22
f 64/225/22 62/226/22 75/227/22 74/228/22
f 62/229/22 61/230/22 76/231/22 75/232/22
f 61/233/22 63/234/22 73/235/22 76/236/22
f 61/230/21 62/229/21 78/237/21 77/238/21
f 62/239/21 58/240/21 79/241/21 78/242/21
f 58/194/21 57/193/21 80/243/21 79/244/21
f 57/245/21 61/246/21 77/247/21 80/248/21
f 59/220/24 63/219/24 82/249/24 81/250/24
f 63/234/24 61/233/24 83/251/24 82/252/24
f 61/246/24 57/245/24 84/253/24 83/254/24
f 57/206/24 59/205/24 81/255/24 84/256/24
f 64/212/20 60/211/20 86/257/20 85/258/20
f 60/198/20 58/197/20 87/259/20 86/260/20
f 58/240/20 62/239/20 88/261/20 87/262/20
f 62/226/20 64/225/20 85/263/20 88/264/20
f 89/265/19 90/266/19 92/267/19 91/268/19
f 94/269/23 93/270/23 96/271/23 95/272/23
f 98/273/22 97/274/22 100/275/22 99/276/22
f 102/277/21 101/278/21 104/279/21 103/280/21
f 106/281/24 105/282/24 108/283/24 107/284/24
f 110/285/20 109/286/20 112/287/20 111/288/20
f 66/289/24 67/290/24 92/291/24 90/292/24
f 76/293/20 73/294/20 98/295/20 99/296/20
f 81/297/21 82/298/21 105/299/21 106/300/21
f 70/301/24 71/302/24 96/303/24 93/304/24
f 80/305/20 77/306/20 102/307/20 103/308/20
f 85/309/21 86/310/21 109/311/21 110/312/21
f 67/313/21 68/314/21 91/315/21 92/316/21
f 74/317/24 75/318/24 100/319/24 97/320/24
f 84/321/22 81/322/22 106/323/22 107/324/22
f 71/325/19 72/326/19 95/327/19 96/328/19
f 78/329/24 79/330/24 104/331/24 101/332/24
f 88/333/19 85/334/19 110/335/19 111/336/19
f 75/337/23 76/338/23 99/339/23 100/340/23
f 82/341/19 83/342/19 108/343/19 105/344/19
f 79/345/22 80/346/22 103/347/22 104/348/22
f 86/349/22 87/350/22 112/351/22 109/352/22
f 83/353/23 84/354/23 107/355/23 108/356/23
f 87/357/23 88/358/23 111/359/23 112/360/23
o Cube.099_Cube.150
v 1.534387 -0.975907 2.675070
v 1.534387 -0.975907 0.665903
v 3.543554 -0.975907 0.665903
v 3.543554 -0.975907 2.675070
v 1.619166 0.155817 2.590291
v 1.534387 0.071038 2.675070
v 1.559218 0.130986 2.650239
v 1.619166 0.155817 0.750682
v 1.534387 0.071038 0.665903
v 1.559218 0.130986 0.690734
v 3.458775 0.155817 2.590291
v 3.543554 0.071038 2.675070
v 3.518723 0.130986 2.650239
v 3.458775 0.155817 0.750682
v 3.543554 0.071038 0.665903
v 3.518723 0.130986 0.690734
vt 0.287207 0.712107
vt 0.287834 0.288150
vt 0.711786 0.287893
vt 0.711159 0.711850
vt 0.255482 0.999900
vt 0.254957 0.745048
vt 0.744036 0.744041
vt 0.744561 0.998893
vt 0.743512 0.000100
vt 0.744037 0.254952
vt 0.254957 0.255959
vt 0.254432 0.001107
vt 0.000100 0.255959
vt 0.000100 0.745048
vt 0.272051 0.271706
vt 0.728259 0.272081
vt 0.270735 0.727919
vt 0.726942 0.728294
vt 0.998893 0.744041
vt 0.998893 0.254952
vn 0.1481 0.9778 -0.1481
vn -0.1481 0.9778 -0.1481
vn -0.1481 0.9778 0.1481
vn 0.1481 0.9778 0.1481
vn 0.7071 0.0000 -0.7071
vn 0.6871 0.2361 -0.6871
vn 0.6871 0.2361 0.6871
vn 0.7071 0.0000 0.7071
vn -0.7071 0.0000 0.7071
vn -0.6871 0.2361 0.6871
vn -0.6871 0.2361 -0.6871
vn -0.7071 0.0000 -0.7071
vn -0.4975 0.7106 -0.4975
vn -0.4975 0.7106 0.4975
vn 0.4975 0.7106 -0.4975
vn 0.4975 0.7106 0.4975
s 1
f 126/361/25 120/362/26 117/363/27 123/364/28
f 115/365/29 127/366/30 124/367/31 116/368/32
f 113/369/33 118/370/34 121/371/35 114/372/36
f 114/373/36 121/371/35 127/366/30 115/374/29
f 117/363/27 120/362/26 122/375/37 119/376/38
f 119/376/38 122/375/37 121/371/35 118/370/34
f 120/362/26 126/361/25 128/377/39 122/375/37
f 122/375/37 128/377/39 127/366/30 121/371/35
f 126/361/25 123/364/28 125/378/40 128/377/39
f 128/377/39 125/378/40 124/367/31 127/366/30
f 123/364/28 117/363/27 119/376/38 125/378/40
f 125/378/40 119/376/38 118/370/34 124/367/31
f 116/379/32 124/367/31 118/370/34 113/380/33
o Cube.100_Cube.151
v 1.554440 -1.000862 -0.633993
v 1.554440 -1.000862 -2.669491
v 3.589938 -1.000862 -2.669491
v 3.589938 -1.000862 -0.633993
v 1.512800 0.302606 -0.592354
v 1.415156 0.204962 -0.494709
v 1.443755 0.274007 -0.523308
v 1.512800 0.302606 -2.711130
v 1.415156 0.204962 -2.808775
v 1.443755 0.274007 -2.780176
v 3.631577 0.302606 -0.592354
v 3.729222 0.204962 -0.494709
v 3.700623 0.274007 -0.523308
v 3.631577 0.302606 -2.711130
v 3.729222 0.204962 -2.808775
v 3.700623 0.274007 -2.780176
v 3.688371 -0.076268 -0.535561
v 1.456007 -0.076268 -0.535561
v 1.456007 -0.076268 -2.767924
v 3.688371 -0.076268 -2.767924
v 1.562398 -0.622513 -0.641951
v 1.562398 -0.622513 -2.661534
v 3.581980 -0.622513 -2.661534
v 3.581980 -0.622513 -0.641951
vt 0.289048 0.288438
vt 0.710683 0.289930
vt 0.710071 0.711562
vt 0.288435 0.710070
vt 0.196620 0.264884
vt 0.256353 0.256297
vt 0.256353 0.742701
vt 0.196620 0.734115
vt 0.802499 0.735116
vt 0.742765 0.743703
vt 0.742765 0.257299
vt 0.802499 0.265885
vt 0.734301 0.197547
vt 0.265063 0.196580
vt 0.727069 0.274267
vt 0.725762 0.727977
vt 0.273356 0.272023
vt 0.272049 0.725733
vt 0.264817 0.802453
vt 0.734055 0.803420
vt 0.286939 0.919477
vt 0.711451 0.920351
vt 0.712179 0.080523
vt 0.287667 0.079649
vt 0.919474 0.712754
vt 0.919474 0.288248
vt 0.079644 0.287246
vt 0.079644 0.711752
vt 0.000100 0.285574
vt 0.000100 0.713425
vt 0.999019 0.714426
vt 0.999018 0.286575
vt 0.714016 0.000981
vt 0.286158 0.000100
vt 0.285103 0.999019
vt 0.712960 0.999900
vn 0.1481 0.9778 -0.1481
vn -0.1481 0.9778 -0.1481
vn -0.1481 0.9778 0.1481
vn 0.1481 0.9778 0.1481
vn 0.6881 -0.2302 -0.6881
vn 0.6999 0.1418 -0.6999
vn 0.6999 0.1418 0.6999
vn 0.6881 -0.2302 0.6881
vn -0.6881 -0.2302 0.6881
vn -0.6999 0.1418 0.6999
vn -0.6999 0.1418 -0.6999
vn -0.6881 -0.2302 -0.6881
vn -0.4975 0.7106 -0.4975
vn -0.4975 0.7106 0.4975
vn 0.4975 0.7106 -0.4975
vn 0.4975 0.7106 0.4975
vn 0.7013 -0.1280 0.7013
vn -0.7013 -0.1280 0.7013
vn -0.7013 -0.1280 -0.7013
vn 0.7013 -0.1280 -0.7013
vn 0.7068 0.0297 -0.7068
vn 0.7068 0.0297 0.7068
vn -0.7068 0.0297 0.7068
vn -0.7068 0.0297 -0.7068
s 1
f 142/381/41 136/382/42 133/383/43 139/384/44
f 148/385/45 143/386/46 140/387/47 145/388/48
f 146/389/49 134/390/50 137/391/51 147/392/52
f 147/393/52 137/391/51 143/386/46 148/394/45
f 133/383/43 136/382/42 138/395/53 135/396/54
f 135/396/54 138/395/53 137/391/51 134/390/50
f 136/382/42 142/381/41 144/397/55 138/395/53
f 138/395/53 144/397/55 143/386/46 137/391/51
f 142/381/41 139/384/44 141/398/56 144/397/55
f 144/397/55 141/398/56 140/387/47 143/386/46
f 139/384/44 133/383/43 135/396/54 141/398/56
f 141/398/56 135/396/54 134/390/50 140/387/47
f 145/399/48 140/387/47 134/390/50 146/400/49
f 152/401/57 145/399/48 146/400/49 149/402/58
f 150/403/59 147/393/52 148/394/45 151/404/60
f 149/405/58 146/389/49 147/392/52 150/406/59
f 151/407/60 148/385/45 145/388/48 152/408/57
f 131/409/61 151/407/60 152/408/57 132/410/62
f 129/411/63 149/405/58 150/406/59 130/412/64
f 130/413/64 150/403/59 151/404/60 131/414/61
f 132/415/62 152/401/57 149/402/58 129/416/63
