# Blender v2.93.3 OBJ File: 'Boxes.blend'
# www.blender.org
o Cube.097_Cube.148
v 1.000000 0.709674 -1.000000
v 1.000000 -1.028721 -1.000000
v -1.000000 -1.028721 1.000000
v -1.000000 0.709674 1.000000
v 1.000000 0.709674 1.000000
v 1.000000 -1.028721 1.000000
v -1.000000 0.709674 -1.000000
v -1.000000 -1.028721 -1.000000
v -1.123056 0.709674 1.123055
v -1.123056 0.971279 1.123055
v 1.123056 0.971279 1.123055
v 1.123056 0.971279 -1.123055
v -1.123056 0.971279 -1.123055
v 1.123056 0.709674 -1.123055
v 1.123056 0.709674 1.123055
v -1.123056 0.709674 -1.123055
vt 0.145657 0.949021
vt 0.849179 0.949023
vt 0.892466 0.995893
vt 0.102371 0.995892
vt 0.143860 0.945902
vt 0.854696 0.945902
vt 0.898431 0.994227
vt 0.100125 0.994226
vt 0.991591 0.001018
vt 0.995168 0.859646
vt 0.007328 0.863761
vt 0.003751 0.005133
vt 0.986619 0.004684
vt 0.990167 0.863610
vt 0.010393 0.867727
vt 0.006846 0.008800
vt 0.144189 0.947589
vt 0.853817 0.947590
vt 0.897479 0.995077
vt 0.100526 0.995076
vt 0.989373 0.004441
vt 0.992947 0.869762
vt 0.005879 0.873909
vt 0.002306 0.008588
vt 0.989763 0.002789
vt 0.993341 0.854254
vt 0.005055 0.858335
vt 0.001477 0.006869
vt 0.852554 0.899227
vt 0.852554 1.001962
vt 0.146002 1.001961
vt 0.146003 0.899226
vt 0.851711 0.900078
vt 0.851711 1.001032
vt 0.146358 1.001030
vt 0.146358 0.900076
vt 0.848544 0.900357
vt 0.848543 1.001637
vt 0.151270 1.001636
vt 0.151270 0.900356
vt 0.847274 0.900893
vt 0.847274 1.000535
vt 0.147990 1.000533
vt 0.147990 0.900892
vt 0.149238 0.947717
vt 0.850738 0.947717
vt 0.893900 0.995357
vt 0.106076 0.995356
vt 0.994970 0.004069
vt 0.994968 0.996560
vt 0.002478 0.996558
vt 0.002479 0.004067
vt 0.195854 0.203714
vt 0.799137 0.201201
vt 0.801650 0.804484
vt 0.198367 0.806997
vn 0.0000 -1.0000 -0.0000
vn 0.0000 0.0000 -1.0000
vn 1.0000 0.0000 0.0000
vn -1.0000 0.0000 0.0000
vn 0.0000 0.0000 1.0000
vn 0.0000 1.0000 0.0000
s off
f 1/1/1 7/2/1 16/3/1 14/4/1
f 4/5/1 5/6/1 15/7/1 9/8/1
f 8/9/2 7/10/2 1/11/2 2/12/2
f 2/13/3 1/14/3 5/15/3 6/16/3
f 7/17/1 4/18/1 9/19/1 16/20/1
f 3/21/4 4/22/4 7/23/4 8/24/4
f 6/25/5 5/26/5 4/27/5 3/28/5
f 15/29/5 11/30/5 10/31/5 9/32/5
f 9/33/4 10/34/4 13/35/4 16/36/4
f 14/37/3 12/38/3 11/39/3 15/40/3
f 16/41/2 13/42/2 12/43/2 14/44/2
f 5/45/1 1/46/1 14/47/1 15/48/1
f 11/49/6 12/50/6 13/51/6 10/52/6
f 8/53/1 2/54/1 6/55/1 3/56/1
