# Blender v2.93.3 OBJ File: 'Boxes.blend'
# www.blender.org
o Cube.100_Cube.151
v -1.017749 -0.807673 1.017749
v -1.017749 -0.807673 -1.017749
v 1.017749 -0.807673 -1.017749
v 1.017749 -0.807673 1.017749
v -1.059389 0.495795 1.059388
v -1.157033 0.398150 1.157033
v -1.128434 0.467195 1.128434
v -1.059389 0.495795 -1.059388
v -1.157033 0.398150 -1.157033
v -1.128434 0.467195 -1.128434
v 1.059389 0.495795 1.059388
v 1.157033 0.398150 1.157033
v 1.128434 0.467195 1.128434
v 1.059389 0.495795 -1.059388
v 1.157033 0.398150 -1.157033
v 1.128434 0.467195 -1.128434
v 1.116182 0.116921 1.116181
v -1.116182 0.116921 1.116181
v -1.116182 0.116921 -1.116181
v 1.116182 0.116921 -1.116181
v -1.009791 -0.429324 1.009791
v -1.009791 -0.429324 -1.009791
v 1.009791 -0.429324 -1.009791
v 1.009791 -0.429325 1.009791
vt 0.289048 0.288438
vt 0.710683 0.289930
vt 0.710071 0.711562
vt 0.288435 0.710070
vt 0.196620 0.264884
vt 0.256353 0.256297
vt 0.256353 0.742701
vt 0.196620 0.734115
vt 0.802499 0.735116
vt 0.742765 0.743703
vt 0.742765 0.257299
vt 0.802499 0.265885
vt 0.734301 0.197547
vt 0.265063 0.196580
vt 0.727069 0.274267
vt 0.725762 0.727977
vt 0.273356 0.272023
vt 0.272049 0.725733
vt 0.264817 0.802453
vt 0.734055 0.803420
vt 0.286939 0.919477
vt 0.711451 0.920351
vt 0.712179 0.080523
vt 0.287667 0.079649
vt 0.919474 0.712754
vt 0.919474 0.288248
vt 0.079644 0.287246
vt 0.079644 0.711752
vt 0.000100 0.285574
vt 0.000100 0.713425
vt 0.999019 0.714426
vt 0.999018 0.286575
vt 0.714016 0.000981
vt 0.286158 0.000100
vt 0.285103 0.999019
vt 0.712960 0.999900
vn 0.1481 0.9778 -0.1481
vn -0.1481 0.9778 -0.1481
vn -0.1481 0.9778 0.1481
vn 0.1481 0.9778 0.1481
vn 0.6881 -0.2302 -0.6881
vn 0.6999 0.1418 -0.6999
vn 0.6999 0.1418 0.6999
vn 0.6881 -0.2302 0.6881
vn -0.6881 -0.2302 0.6881
vn -0.6999 0.1418 0.6999
vn -0.6999 0.1418 -0.6999
vn -0.6881 -0.2302 -0.6881
vn -0.4975 0.7106 -0.4975
vn -0.4975 0.7106 0.4975
vn 0.4975 0.7106 -0.4975
vn 0.4975 0.7106 0.4975
vn 0.7013 -0.1280 0.7013
vn -0.7013 -0.1280 0.7013
vn -0.7013 -0.1280 -0.7013
vn 0.7013 -0.1280 -0.7013
vn 0.7068 0.0297 -0.7068
vn 0.7068 0.0297 0.7068
vn -0.7068 0.0297 0.7068
vn -0.7068 0.0297 -0.7068
s 1
f 14/1/1 8/2/2 5/3/3 11/4/4
f 20/5/5 15/6/6 12/7/7 17/8/8
f 18/9/9 6/10/10 9/11/11 19/12/12
f 19/13/12 9/11/11 15/6/6 20/14/5
f 5/3/3 8/2/2 10/15/13 7/16/14
f 7/16/14 10/15/13 9/11/11 6/10/10
f 8/2/2 14/1/1 16/17/15 10/15/13
f 10/15/13 16/17/15 15/6/6 9/11/11
f 14/1/1 11/4/4 13/18/16 16/17/15
f 16/17/15 13/18/16 12/7/7 15/6/6
f 11/4/4 5/3/3 7/16/14 13/18/16
f 13/18/16 7/16/14 6/10/10 12/7/7
f 17/19/8 12/7/7 6/10/10 18/20/9
f 24/21/17 17/19/8 18/20/9 21/22/18
f 22/23/19 19/13/12 20/14/5 23/24/20
f 21/25/18 18/9/9 19/12/12 22/26/19
f 23/27/20 20/5/5 17/8/8 24/28/17
f 3/29/21 23/27/20 24/28/17 4/30/22
f 1/31/23 21/25/18 22/26/19 2/32/24
f 2/33/24 22/23/19 23/24/20 3/34/21
f 4/35/22 24/21/17 21/22/18 1/36/23
